# xmcd CD database file
#
# Track frame offsets:
#	150
#	23065
#	40870
#	58997
#	75275
#	93960
#	115887
#	134910
#	148552
#	173195
#	190302
#
# Disc length: 3108 seconds
#
# Revision: 0
# Processed by: cddbd v1.5.1PL0 Copyright (c) Steve Scherf et al.
# Submitted via: CDex 1.51
#
DISCID=950c220b
DTITLE=Various Artist - Naturally -Springs Island-
DYEAR=1900
DGENRE=New Age
TTITLE0=Moon Light Sailor　松居慶子
TTITLE1=カマラード　都留教博＋中村由利子
TTITLE2=マングローブと鳥たち　中田悟
TTITLE3=Maile Swing　テレサ・ブライト
TTITLE4=ぴあの　久石譲
TTITLE5=It's A Long Story　CASIOPEA
TTITLE6=Lake of the White Owl　松居慶子
TTITLE7=屋久杉の呼吸　中田悟
TTITLE8=Rosso Adriatico　久石譲
TTITLE9=ウエラ　都留教博＋中村由利子
TTITLE10=水平線のかなた　中田悟
EXTD=
EXTT0=
EXTT1=
EXTT2=
EXTT3=
EXTT4=
EXTT5=
EXTT6=
EXTT7=
EXTT8=
EXTT9=
EXTT10=
PLAYORDER=
